<svg xmlns="http://www.w3.org/2000/svg" width="30" height="30" viewBox="0 0 30 30">
    <path fill="#000" fill-rule="nonzero" d="M29 15c0-7.72-6.28-14-14-14S1 7.28 1 15c0 4.077 1.753 7.752 4.544 10.313l-.013.012.454.383c.03.025.062.045.091.07.241.2.491.39.746.573a14.257 14.257 0 0 0 1.085.71c.062.038.125.073.187.109.312.177.63.345.957.499l.073.032a13.874 13.874 0 0 0 4.598 1.237l.138.011c.375.031.755.051 1.14.051.381 0 .758-.02 1.131-.05l.142-.01c.374-.035.744-.084 1.109-.147a13.873 13.873 0 0 0 3.433-1.063l.117-.053a14.07 14.07 0 0 0 1.95-1.115c.094-.064.187-.131.28-.199.223-.16.443-.326.656-.5.047-.038.098-.071.145-.11l.465-.39-.013-.011A13.964 13.964 0 0 0 29 15zM2.018 15C2.018 7.842 7.842 2.018 15 2.018c7.158 0 12.982 5.824 12.982 12.982a12.95 12.95 0 0 1-4.373 9.705c-.15-.104-.3-.196-.454-.274l-4.31-2.155a1.128 1.128 0 0 1-.628-1.014v-1.506c.1-.123.205-.262.314-.415a10.374 10.374 0 0 0 1.332-2.609 1.848 1.848 0 0 0 1.061-1.674v-1.805c0-.441-.162-.87-.451-1.206V9.671c.026-.264.12-1.755-.959-2.985-.938-1.071-2.457-1.613-4.514-1.613-2.057 0-3.576.542-4.514 1.613-1.079 1.23-.985 2.72-.959 2.985v2.376c-.289.336-.451.764-.451 1.206v1.805c0 .56.251 1.083.682 1.436.412 1.615 1.26 2.838 1.575 3.252v1.474c0 .415-.227.797-.592.996l-4.025 2.196a3.68 3.68 0 0 0-.383.242A12.95 12.95 0 0 1 2.018 15zm20.597 10.504c-.178.129-.359.254-.543.374a12.799 12.799 0 0 1-.989.586c-.054.029-.11.056-.165.085-.574.293-1.167.546-1.776.751l-.065.022c-.319.106-.642.2-.969.281h-.003c-.33.082-.664.15-1 .205l-.027.005c-.317.052-.635.089-.955.117l-.17.013c-.316.024-.634.039-.953.039-.323 0-.645-.016-.965-.04l-.166-.013a13.166 13.166 0 0 1-.962-.118l-.043-.008a12.933 12.933 0 0 1-1.98-.494l-.06-.02c-.32-.11-.637-.23-.948-.364l-.007-.003a13.284 13.284 0 0 1-.868-.415l-.111-.058a13.084 13.084 0 0 1-.987-.588 12.94 12.94 0 0 1-.681-.475l-.068-.052.049-.028 4.025-2.196a2.153 2.153 0 0 0 1.123-1.89v-1.834l-.118-.142c-.011-.012-1.112-1.351-1.528-3.164l-.046-.202-.174-.112a.844.844 0 0 1-.391-.709v-1.805c0-.236.1-.457.283-.622l.168-.152V9.642l-.004-.066c-.002-.013-.152-1.237.71-2.22.737-.839 1.998-1.265 3.749-1.265 1.744 0 3.002.422 3.74 1.255.861.973.72 2.22.72 2.23l-.005 2.903.168.152a.832.832 0 0 1 .283.622v1.805a.85.85 0 0 1-.601.802l-.253.078-.082.252a9.418 9.418 0 0 1-1.27 2.561 6.252 6.252 0 0 1-.375.484l-.126.144v1.883c0 .82.456 1.559 1.19 1.925l4.31 2.155.082.042c-.055.042-.11.08-.166.12z"/>
</svg>
