<svg xmlns="http://www.w3.org/2000/svg" width="30" height="30" viewBox="0 0 30 30">
    <path fill="#555" fill-rule="nonzero" d="M17.988 26.42c0 .012.004.023.004.036C17.992 27.86 16.876 29 15.5 29s-2.492-1.14-2.492-2.544c0-.012.003-.023.003-.036C5.041 26.197 3 24.875 3 23.273c0-.501.215-.974.738-1.396 3.768-4.274 4.887-3.091 4.887-9.422 0-4.222.17-8.092 5.161-8.789a1.938 1.938 0 0 1-.155-.758C13.631 1.854 14.468 1 15.5 1s1.869.854 1.869 1.908c0 .27-.057.525-.155.758 4.992.697 5.161 4.567 5.161 8.789 0 6.35 1.125 5.138 4.92 9.458.496.414.705.873.705 1.36 0 1.601-2.096 2.923-10.012 3.147zM15.5 27.73a1.26 1.26 0 0 0 1.246-1.272l-.001-.011c-.407.005-.81.012-1.245.012-.435 0-.838-.007-1.245-.012l-.001.011A1.26 1.26 0 0 0 15.5 27.73zm0-25.458a.629.629 0 0 0-.623.636.63.63 0 0 0 .623.636.63.63 0 0 0 .623-.636.63.63 0 0 0-.623-.636zm11.003 20.627s-.951-1.09-2.511-2.535c-2.13-1.977-2.867-2.914-2.867-7.908 0-4.879-.261-7.638-5.625-7.638s-5.625 2.76-5.625 7.638c0 4.995-.737 5.932-2.869 7.91-1.53 1.418-2.491 2.509-2.491 2.509-.265.214-.265.339-.265.4 0 .078.128 1.91 11.25 1.91s11.25-1.832 11.25-1.91c0-.052 0-.17-.247-.376z"/>
</svg>
