<svg xmlns="http://www.w3.org/2000/svg" width="30" height="30" viewBox="0 0 30 30">
    <path fill="#555" fill-rule="nonzero" d="M27.958 4.017l-5.25 1.022a.878.878 0 0 0-.709.863v3.553H1.875a.876.876 0 0 0-.774.47.883.883 0 0 0 .053.907L5.99 17.92c.163.239.433.382.72.382H20.96l.005 1.953H8.875c-.014 0-.025.007-.039.008-.026-.001-.05-.008-.076-.008-1.536 0-2.785 1.288-2.785 2.872C5.975 24.711 7.225 26 8.76 26c1.535 0 2.784-1.29 2.784-2.873 0-.394-.078-.77-.218-1.112h7.193c-.14.342-.218.718-.218 1.112 0 1.584 1.25 2.873 2.785 2.873 1.534 0 2.784-1.29 2.784-2.873 0-.953-.458-1.793-1.153-2.316l-.006-2.508h.165a.877.877 0 0 0 .875-.88v-7.088c0-.024-.013-.044-.014-.07.001-.023.014-.044.014-.069V6.628l4.54-.884a.879.879 0 0 0 .693-1.031.871.871 0 0 0-1.026-.696zM8.76 24.24c-.57 0-1.035-.499-1.035-1.113s.464-1.112 1.035-1.112c.57 0 1.034.498 1.034 1.112 0 .614-.464 1.113-1.034 1.113zm12.326 0c-.57 0-1.035-.499-1.035-1.113s.464-1.112 1.035-1.112c.57 0 1.034.498 1.034 1.112 0 .614-.465 1.113-1.034 1.113zM3.537 11.215H22v5.328H7.174l-3.637-5.328z"/>
</svg>
