<svg xmlns="http://www.w3.org/2000/svg" width="30" height="30" viewBox="0 0 30 30">
    <g fill="#555" fill-rule="nonzero">
        <path d="M6.5 11h-2a.5.5 0 0 0 0 1h2a.5.5 0 1 0 0-1zM17.545 11h-3.09c-.251 0-.455.224-.455.5s.204.5.455.5h3.09c.251 0 .455-.224.455-.5s-.204-.5-.455-.5zM11.545 11h-3.09c-.252 0-.455.224-.455.5s.203.5.455.5h3.09c.252 0 .455-.224.455-.5s-.203-.5-.455-.5zM21.5 12h2a.5.5 0 1 0 0-1h-2a.5.5 0 0 0 0 1zM6.5 22h-2a.5.5 0 0 0 0 1h2a.5.5 0 1 0 0-1zM11.545 22h-3.09c-.252 0-.455.224-.455.5s.203.5.455.5h3.09c.252 0 .455-.224.455-.5s-.203-.5-.455-.5zM17.545 22h-3.09c-.251 0-.455.224-.455.5s.204.5.455.5h3.09c.251 0 .455-.224.455-.5s-.204-.5-.455-.5zM23.5 22h-2a.5.5 0 0 0 0 1h2a.5.5 0 1 0 0-1z"/>
        <path d="M27.013 13.963h-1.107v-3.638c0-1.295-1.06-2.349-2.362-2.349h-2.538l-.515-3.225a.892.892 0 0 0-1.097-.726L3.03 8.002l-.005.001A2.355 2.355 0 0 0 1 10.325v13.326C1 24.947 2.06 26 3.363 26h20.18a2.359 2.359 0 0 0 2.363-2.35v-3.965h1.106c1.097 0 1.988-.965 1.988-2.151v-1.42c0-1.186-.89-2.15-1.987-2.15zm-8.138-7.98l.318 1.993h-8.518l8.2-1.993zm5.242 17.668c0 .314-.257.57-.574.57H3.363a.572.572 0 0 1-.573-.57V10.325c0-.314.257-.57.573-.57h20.18c.317 0 .574.256.574.57v3.638h-.654c-1.096 0-1.987.965-1.987 2.152v1.42c0 1.186.891 2.15 1.987 2.15h.654v3.966zm3.094-6.117c0 .226-.13.371-.198.371h-3.55c-.068 0-.197-.145-.197-.371v-1.42c0-.226.13-.371.197-.371h3.55c.068 0 .198.145.198.372v1.419z"/>
        <path d="M24 16a1.001 1.001 0 0 0 0 2 1 1 0 0 0 0-2zm0 1.3a.302.302 0 0 1-.301-.3.301.301 0 1 1 .301.3z"/>
    </g>
</svg>
