<svg xmlns="http://www.w3.org/2000/svg" width="30" height="30" viewBox="0 0 30 30">
    <g fill="none" fill-rule="evenodd" transform="translate(1 1)">
        <path fill="#E4375C" fill-rule="nonzero" d="M27.583 13.213a2.123 2.123 0 0 0 .383-1.644 2.142 2.142 0 0 0-.93-1.415 1.33 1.33 0 0 1-.545-1.48A2.12 2.12 0 0 0 26.28 7a2.17 2.17 0 0 0-1.364-1.016 1.344 1.344 0 0 1-1.025-1.206 2.135 2.135 0 0 0-.777-1.503 2.192 2.192 0 0 0-1.633-.494 1.359 1.359 0 0 1-1.381-.787 2.162 2.162 0 0 0-1.25-1.15 2.198 2.198 0 0 0-1.707.087 1.37 1.37 0 0 1-1.57-.273A2.186 2.186 0 0 0 14 0c-.598 0-1.157.234-1.573.658a1.37 1.37 0 0 1-1.571.273A2.198 2.198 0 0 0 9.15.844a2.162 2.162 0 0 0-1.25 1.15 1.36 1.36 0 0 1-1.382.787 2.192 2.192 0 0 0-1.634.494c-.458.38-.734.913-.776 1.503a1.344 1.344 0 0 1-1.026 1.206A2.17 2.17 0 0 0 1.72 7a2.12 2.12 0 0 0-.21 1.674 1.33 1.33 0 0 1-.545 1.48 2.143 2.143 0 0 0-.547 3.059c.346.47.346 1.103 0 1.574a2.123 2.123 0 0 0-.383 1.644c.104.582.434 1.084.93 1.415.487.326.707.92.545 1.48A2.12 2.12 0 0 0 1.72 21c.299.511.783.872 1.363 1.016.572.141.984.626 1.026 1.206.042.59.318 1.123.776 1.502.459.38 1.039.556 1.634.495a1.36 1.36 0 0 1 1.381.787c.244.54.688.948 1.25 1.15a2.198 2.198 0 0 0 1.707-.088 1.37 1.37 0 0 1 1.57.274c.417.424.976.658 1.574.658.598 0 1.157-.234 1.573-.658a1.37 1.37 0 0 1 1.571-.273c.538.258 1.144.289 1.706.087a2.162 2.162 0 0 0 1.25-1.15 1.36 1.36 0 0 1 1.382-.787 2.191 2.191 0 0 0 1.634-.494c.458-.38.734-.913.776-1.503a1.344 1.344 0 0 1 1.026-1.206A2.17 2.17 0 0 0 26.28 21a2.12 2.12 0 0 0 .21-1.674 1.33 1.33 0 0 1 .545-1.48 2.143 2.143 0 0 0 .547-3.059 1.325 1.325 0 0 1 0-1.574zm-.805 2.041a1.315 1.315 0 0 1-.336 1.878 2.12 2.12 0 0 0-.87 2.358 1.3 1.3 0 0 1-.128 1.027 1.333 1.333 0 0 1-.838.624 2.142 2.142 0 0 0-1.635 1.922 1.31 1.31 0 0 1-.477.922c-.282.233-.638.34-1.003.303a2.168 2.168 0 0 0-2.203 1.255 1.352 1.352 0 0 1-1.816.652 2.185 2.185 0 0 0-2.506.436c-.255.26-.598.403-.966.403s-.71-.143-.967-.403a2.178 2.178 0 0 0-2.504-.436c-.33.158-.703.177-1.049.053a1.327 1.327 0 0 1-.768-.705 2.168 2.168 0 0 0-2.203-1.255 1.347 1.347 0 0 1-1.003-.303 1.31 1.31 0 0 1-.477-.922 2.142 2.142 0 0 0-1.635-1.922 1.333 1.333 0 0 1-.838-.624 1.3 1.3 0 0 1-.129-1.027 2.12 2.12 0 0 0-.87-2.358 1.315 1.315 0 0 1-.335-1.878 2.11 2.11 0 0 0 0-2.508 1.315 1.315 0 0 1 .336-1.878 2.12 2.12 0 0 0 .87-2.358 1.3 1.3 0 0 1 .128-1.027c.184-.314.481-.536.838-.624a2.142 2.142 0 0 0 1.635-1.922 1.31 1.31 0 0 1 .477-.922c.282-.233.638-.34 1.004-.303a2.167 2.167 0 0 0 2.202-1.255 1.351 1.351 0 0 1 1.816-.652c.846.405 1.852.23 2.506-.436.255-.26.599-.403.966-.403.368 0 .71.143.967.403.653.666 1.66.84 2.504.436a1.35 1.35 0 0 1 1.049-.053c.345.124.618.374.768.705a2.168 2.168 0 0 0 2.203 1.255c.365-.038.721.07 1.003.303.282.233.451.56.477.922a2.142 2.142 0 0 0 1.635 1.922c.357.088.654.31.838.624a1.3 1.3 0 0 1 .129 1.027 2.12 2.12 0 0 0 .87 2.358 1.315 1.315 0 0 1 .335 1.878 2.11 2.11 0 0 0 0 2.508z"/>
        <circle cx="14" cy="14" r="10" fill="#FFF" stroke="#E4375C"/>
    </g>
</svg>
