<svg xmlns="http://www.w3.org/2000/svg" width="30" height="30" viewBox="0 0 30 30">
    <g fill="none" fill-rule="evenodd">
        <path fill="#86EFD8" fill-rule="nonzero" d="M26.273 11.639v-4.54l-4.32-1.402-2.665-3.676-4.318 1.408-4.318-1.408-2.665 3.676L3.667 7.1v4.54L1 15.312l2.667 3.674v4.54l4.32 1.401 2.665 3.677 4.318-1.409 4.318 1.409 2.665-3.677 4.32-1.401v-4.54l2.667-3.674z"/>
        <path fill="#E4375C" d="M10.103 14.018a2.429 2.429 0 0 1-.726-1.77v-.636c0-.717.258-1.31.721-1.782.463-.471 1.135-.707 1.99-.707.865 0 1.517.236 1.98.707.463.471.682 1.065.682 1.782v.637c0 .716-.212 1.308-.675 1.773-.463.466-1.126.699-1.98.699-.86 0-1.527-.234-1.992-.703zM12.556 20.435l-1.298-.653 5.878-9.41 1.298.653zM20.5 19.021c0 .722-.225 1.316-.686 1.782-.46.466-1.115.699-1.97.699-.859 0-1.532-.235-2.003-.703-.471-.469-.714-1.061-.714-1.778v-.637c0-.71.243-1.302.711-1.773.469-.472 1.134-.707 1.988-.707.866 0 1.526.234 1.986.702.46.469.688 1.062.688 1.778v.637z"/>
        <path fill="#8DF0DA" fill-rule="nonzero" d="M12.751 12.933c.152-.184.21-.413.21-.687v-.632c0-.274-.06-.505-.214-.694-.155-.19-.366-.284-.653-.284-.281 0-.519.095-.673.284-.154.189-.251.42-.251.694v.632c0 .274.101.503.255.687.155.183.381.275.674.275.28 0 .5-.092.652-.275zM17.833 17.417c-.286 0-.517.094-.67.283a1.056 1.056 0 0 0-.242.686v.633c0 .263.098.49.274.682a.854.854 0 0 0 .65.287c.342 0 .568-.084.69-.254.12-.17.177-.408.177-.715v-.633c0-.268-.071-.497-.228-.686-.158-.189-.37-.283-.65-.283z"/>
    </g>
</svg>
