<svg xmlns="http://www.w3.org/2000/svg" width="30" height="30" viewBox="0 0 30 30">
    <path fill="#555" fill-rule="nonzero" d="M15.005 1a13.997 13.997 0 0 0-12.87 8.49l-.174.057.068.203c-2.903 7.162.548 15.321 7.707 18.225A13.987 13.987 0 0 0 15.001 29c7.73.001 13.998-6.266 13.999-13.998.001-7.732-6.265-14-13.995-14.002zm10.98 21.059l-.72-.719v-1.673a.466.466 0 0 0-.046-.209l-1.82-3.635v-1.756a.467.467 0 0 0-.208-.389l-1.4-.933a.467.467 0 0 0-.373-.064l-1.714.428-2.879-1.236-.396-2.775L17.527 8h2.356l.794 1.192c.071.108.184.18.311.201l2.8.467a.463.463 0 0 0 .224-.018l2.578-.86a13.022 13.022 0 0 1-.606 13.077zM24.06 5.599l-.759.505-2.115-.423-1.372-.457a.458.458 0 0 0-.26-.01l-1.735.434-.76-.254.563-1.127H19.2a.466.466 0 0 0 .208-.05l1.615-.807A13.112 13.112 0 0 1 24.06 5.6zM9.89 2.975l1.12.747a.466.466 0 0 0 .183.072l2.26.377-.22.66-1.178.394a.467.467 0 0 0-.253.202l-1.34 2.233L8.31 8.952l-3.172.453a.467.467 0 0 0-.402.462v1.4c0 .123.05.242.137.33l.796.796v.802L3.73 11.9l-.705-2.112A13.14 13.14 0 0 1 9.89 2.975zM8.562 18.276l-2.109-.422-.784-1.564v-1.097l1.739-1.739.643 1.288c.08.158.241.258.418.258h3.002l1.264 2.107c.084.14.236.226.4.226h1.297l-.327 1.637-1.766 1.767a.467.467 0 0 0-.138.33v1.166l-1.68 1.26a.467.467 0 0 0-.186.374v1.685l-.58-.192-.82-2.05v-4.577a.467.467 0 0 0-.373-.457zM7.16 25.45a13.065 13.065 0 0 1-4.653-14.265l.387 1.162a.466.466 0 0 0 .184.241l2.325 1.551-.53.531a.467.467 0 0 0-.137.33v1.4c0 .072.017.144.05.209l.932 1.866c.065.13.186.221.327.249l1.96.392V23.4c0 .06.01.118.033.173l.933 2.333a.467.467 0 0 0 .286.27l1.4.466a.467.467 0 0 0 .612-.442v-2.1l1.679-1.26a.467.467 0 0 0 .187-.373V21.26l1.73-1.73a.467.467 0 0 0 .126-.239l.467-2.333a.467.467 0 0 0-.457-.558h-1.602l-1.264-2.107a.467.467 0 0 0-.4-.226H8.757l-.801-1.609a.467.467 0 0 0-.748-.121l-.605.603v-.74a.467.467 0 0 0-.137-.33l-.797-.797v-.802l2.866-.409A.469.469 0 0 0 8.71 9.8l2.333-1.4a.466.466 0 0 0 .16-.16l1.31-2.185 1.237-.413a.462.462 0 0 0 .294-.295l.467-1.4a.467.467 0 0 0-.366-.606l-2.7-.45-.475-.317a13.025 13.025 0 0 1 8.973.334l-.852.425h-1.756a.467.467 0 0 0-.42.258l-.933 1.867a.467.467 0 0 0 .27.651l1.4.467a.458.458 0 0 0 .26.01l1.735-.434 1.27.424a.343.343 0 0 0 .056.015l2.333.466c.122.025.248 0 .35-.069l1.063-.708c.522.582.992 1.21 1.403 1.875l-2.295.766-2.486-.415-.821-1.232a.467.467 0 0 0-.386-.207h-2.8a.466.466 0 0 0-.33.136l-1.399 1.4a.467.467 0 0 0-.132.397l.467 3.266c.023.162.13.3.28.363l3.266 1.4c.093.04.197.049.296.024l1.666-.417 1.019.68v1.617c0 .073.015.144.047.209l1.82 3.635v1.756c0 .124.048.243.136.33l.976.977c-4.329 5.771-12.515 6.94-18.285 2.61z"/>
</svg>
