<svg xmlns="http://www.w3.org/2000/svg" width="100" height="100" viewBox="0 0 100 100">
    <g fill="#E3395E" fill-rule="evenodd">
        <path d="M2 29v42h9.058V53.934h16.857V71H37V39.5h-9.085v6.594H11.058V29zM45 68h53v-3H45zM54.48 43.487c-.491-.414-1.18-.622-2.067-.622h-3.5v5.508h3.5c.887 0 1.576-.224 2.068-.672.492-.449.738-1.16.738-2.133 0-.973-.246-1.667-.738-2.081m2.965 6.74c-1.089.913-2.643 1.37-4.663 1.37h-3.87v6.727h-3.86V39.616h7.982c1.84 0 3.308.482 4.402 1.447 1.094.964 1.641 2.458 1.641 4.48 0 2.209-.544 3.77-1.632 4.684M66.078 42.865v5.026h4.181c.83 0 1.453-.101 1.869-.305.735-.355 1.102-1.057 1.102-2.106 0-1.134-.356-1.896-1.066-2.285-.4-.22-.999-.33-1.797-.33h-4.289zm8.03-2.767a4.59 4.59 0 0 1 1.74 1.307c.393.475.705.999.935 1.574.23.576.344 1.231.344 1.967 0 .889-.223 1.763-.668 2.621-.446.86-1.182 1.466-2.207 1.822.857.347 1.464.84 1.822 1.478.357.64.536 1.614.536 2.926v1.256c0 .855.034 1.435.102 1.74.103.481.342.837.718 1.065v.47H73.14a13.48 13.48 0 0 1-.252-1.003 9.245 9.245 0 0 1-.164-1.612l-.025-1.738c-.016-1.194-.22-1.989-.614-2.386-.394-.398-1.132-.597-2.214-.597h-3.794v7.336h-3.796V39.616h8.892c1.271.025 2.249.186 2.933.482zM92.735 53.818c.904-1.142 1.356-2.767 1.356-4.874 0-2.098-.452-3.72-1.356-4.867-.904-1.146-2.125-1.72-3.664-1.72-1.539 0-2.766.572-3.683 1.714-.916 1.142-1.375 2.767-1.375 4.873 0 2.107.459 3.732 1.375 4.874.917 1.142 2.144 1.714 3.683 1.714 1.539 0 2.76-.572 3.664-1.714m2.428 2.843c-1.404 1.456-3.435 2.183-6.092 2.183-2.657 0-4.688-.727-6.092-2.183-1.883-1.785-2.825-4.357-2.825-7.717 0-3.426.942-5.998 2.825-7.716 1.404-1.456 3.435-2.183 6.092-2.183 2.657 0 4.688.727 6.092 2.183 1.875 1.718 2.813 4.29 2.813 7.716 0 3.36-.938 5.932-2.813 7.717"/>
    </g>
</svg>
