<svg xmlns="http://www.w3.org/2000/svg" width="30" height="30" viewBox="0 0 30 30">
    <g fill="none" fill-rule="nonzero">
        <path fill="#86EFD8" d="M28.16 13.74c-1.54-4.06-5.6-6.16-10.08-5.32C13.74 4.08 7.72 1.14 1.7 1c-.42 0-.7.28-.7.7.14 6.02 3.08 12.04 7.28 16.38-.7 4.34 1.26 8.54 5.32 10.08-.7-1.82-.84-3.92-.28-6.02.7.42 1.4.84 2.1 1.12.28.14.56.14.84-.14l7-7c.14-.14.14-.42 0-.7-.28-.7-.7-1.4-1.12-1.96 2.1-.56 4.2-.42 6.02.28zm-15.4-.98c-1.12 1.12-2.8 1.12-3.92 0s-1.12-2.8 0-3.92 2.8-1.12 3.92 0 1.12 2.8 0 3.92z"/>
        <path fill="#E4375C" d="M28.58 21.16l-2.94-2.94c-.56-.56-1.4-.56-1.96 0s-.56 1.4 0 1.96l2.94 2.94c.56.56 1.4.56 1.96 0s.56-1.4 0-1.96zM23.12 26.62l-2.94-2.94c-.56-.56-1.4-.56-1.96 0s-.56 1.4 0 1.96l2.94 2.94c.56.56 1.4.56 1.96 0s.56-1.4 0-1.96zM26.9 25.08l-4.06-4.06c-.56-.56-1.4-.56-1.96 0s-.56 1.4 0 1.96l4.06 4.06c.56.56 1.4.56 1.96 0s.56-1.4 0-1.96z"/>
    </g>
</svg>
