<svg xmlns="http://www.w3.org/2000/svg" width="30" height="30" viewBox="0 0 30 30">
    <g fill="#E4375C" fill-rule="nonzero">
        <path d="M14.414 23.421a.898.898 0 0 0-1.295-.205A2.856 2.856 0 0 0 12 25.48c0 .55.158 1.084.477 1.571l1.778 2.55a.91.91 0 0 0 .747.399.912.912 0 0 0 .747-.4l1.793-2.578a2.846 2.846 0 0 0-.71-3.843.898.898 0 0 0-1.292.233 1.01 1.01 0 0 0 .222 1.36c.244.183.384.44.384.708a.789.789 0 0 1-.117.417l-1.028 1.479-1.013-1.453a.797.797 0 0 1-.135-.442c0-.26.134-.512.367-.694.411-.322.498-.933.194-1.366z"/>
        <path d="M20.547 23.774a.865.865 0 0 0 .939.145A.898.898 0 0 0 22 23.1v-5.752a.91.91 0 0 0-.296-.674l-3.144-2.85V5.546a.91.91 0 0 0-.175-.54L15.7 1.34c-.33-.453-1.068-.453-1.4 0l-2.685 3.667a.916.916 0 0 0-.175.54v8.278l-3.144 2.85a.91.91 0 0 0-.296.673v5.753c0 .354.201.674.515.819a.865.865 0 0 0 .939-.145l2.327-2.108a.843.843 0 0 0 .534.205h5.371a.846.846 0 0 0 .535-.205l2.326 2.107zm-.086-2.053l-2.112-1.914v-4.196l2.112 1.914v4.196zM15 2.687l2.058 2.81v8.619h-4.116V5.497L15 2.687zM9.539 17.525l2.112-1.914v4.195L9.539 21.72v-4.195zm3.567 2.662v-5.074h3.79v5.074h-3.79z"/>
    </g>
</svg>
