<svg xmlns="http://www.w3.org/2000/svg" width="30" height="30" viewBox="0 0 30 30">
    <g fill="#000" fill-rule="nonzero">
        <path d="M23.864 11.429v-2.91C23.864 4.373 20.11 1 15.5 1c-4.612 0-8.364 3.373-8.364 7.519v2.91C5.36 11.733 4 13.269 4 15.119v10.133C4 27.318 5.695 29 7.779 29H23.22C25.305 29 27 27.318 27 25.252V15.119c0-1.85-1.359-3.386-3.136-3.69zM8.182 8.519c0-3.575 3.283-6.482 7.318-6.482s7.318 2.907 7.318 6.482v2.851H8.182V8.52zm17.773 16.733c0 1.495-1.227 2.711-2.734 2.711H7.78c-1.507 0-2.734-1.216-2.734-2.711V15.119c0-1.495 1.227-2.712 2.734-2.712H23.22c1.507 0 2.734 1.217 2.734 2.712v10.133z"/>
        <path d="M15.5 16c-1.379 0-2.5 1.153-2.5 2.571v3.858C13 23.847 14.121 25 15.5 25s2.5-1.153 2.5-2.571V18.57C18 17.153 16.879 16 15.5 16zm1.5 6.6c0 .772-.673 1.4-1.5 1.4s-1.5-.628-1.5-1.4v-4.2c0-.772.673-1.4 1.5-1.4s1.5.628 1.5 1.4v4.2z"/>
    </g>
</svg>
