<svg xmlns="http://www.w3.org/2000/svg" width="30" height="30" viewBox="0 0 30 30">
    <g fill="#000" fill-rule="nonzero">
        <path d="M17.484 22.097a.603.603 0 0 0-.698.585v4.136H2.214V3.182h14.572V7.3a.61.61 0 0 0 .516.603.603.603 0 0 0 .698-.585V2.591A.601.601 0 0 0 17.393 2H1.607A.601.601 0 0 0 1 2.59v24.82c0 .324.273.59.607.59h15.786a.601.601 0 0 0 .607-.59V22.7a.61.61 0 0 0-.516-.603z"/>
        <path d="M27.824 15.078l-6-5.913a.61.61 0 0 0-.846.012.59.59 0 0 0 0 .822l4.974 4.902H7.615a.605.605 0 0 0-.606.49.593.593 0 0 0 .594.692h18.355l-4.98 4.902a.578.578 0 0 0-.012.834.598.598 0 0 0 .858 0l6-5.913a.576.576 0 0 0 0-.828z"/>
    </g>
</svg>
