<?xml version="1.0" encoding="utf-8"?>
<!-- Generator: Adobe Illustrator 21.0.0, SVG Export Plug-In . SVG Version: 6.00 Build 0)  -->
<svg version="1.1" id="Layer_1" xmlns="http://www.w3.org/2000/svg" xmlns:xlink="http://www.w3.org/1999/xlink" x="0px" y="0px"
	 viewBox="0 0 774.9 214" style="enable-background:new 0 0 774.9 214;" xml:space="preserve">
<style type="text/css">
	.st0{fill:#E3395E;}
	.st1{fill:#333333;}
	.st2{fill:#FFFFFF;}
	.st3{fill:#0073E6;}
</style>
<g>
	<polygon class="st0" points="138.9,88.4 138.9,56.7 183.2,56.7 183.2,208.3 138.9,208.3 138.9,126.2 56.8,126.2 56.8,208.3 
		12.7,208.3 12.7,6.1 56.8,6.1 56.8,88.4 	"/>
	<path class="st0" d="M219.3,145.7V59.4h17.9v32.9h33.5V59.4h17.9v86.3h-17.9v-38.5h-33.5v38.5H219.3z"/>
	<path class="st0" d="M372.4,138c-6.5,6.7-15.9,10.1-28.3,10.1c-12.3,0-21.8-3.4-28.3-10.1c-8.7-8.2-13.1-20.1-13.1-35.6
		c0-15.8,4.4-27.7,13.1-35.6c6.5-6.7,15.9-10.1,28.3-10.1c12.3,0,21.8,3.4,28.3,10.1c8.7,7.9,13.1,19.8,13.1,35.6
		C385.5,117.9,381.1,129.8,372.4,138z M361.1,124.9c4.2-5.3,6.3-12.8,6.3-22.5c0-9.7-2.1-17.2-6.3-22.4c-4.2-5.3-9.9-7.9-17-7.9
		c-7.1,0-12.8,2.6-17.1,7.9c-4.3,5.3-6.4,12.8-6.4,22.5s2.1,17.2,6.4,22.5c4.3,5.3,10,7.9,17.1,7.9
		C351.3,132.8,356.9,130.1,361.1,124.9z"/>
	<path class="st0" d="M412.2,119c0.6,3.9,1.7,6.9,3.3,8.8c3,3.6,8.1,5.3,15.4,5.3c4.3,0,7.9-0.5,10.6-1.4c5.1-1.8,7.7-5.1,7.7-10
		c0-2.8-1.3-5.1-3.8-6.6c-2.5-1.5-6.5-2.9-12-4l-9.3-2c-9.2-2-15.5-4.2-18.9-6.6c-5.8-4-8.7-10.2-8.7-18.7c0-7.7,2.8-14.1,8.5-19.3
		c5.7-5.1,14-7.7,25.1-7.7c9.2,0,17.1,2.4,23.6,7.2c6.5,4.8,9.9,11.8,10.2,21h-17.3c-0.3-5.2-2.6-8.9-7-11.1
		c-2.9-1.4-6.5-2.2-10.7-2.2c-4.8,0-8.6,0.9-11.4,2.8c-2.8,1.9-4.3,4.5-4.3,7.8c0,3.1,1.4,5.4,4.2,6.9c1.8,1,5.6,2.2,11.5,3.6
		l15.1,3.6c6.6,1.6,11.6,3.6,14.9,6.3c5.1,4.1,7.7,9.9,7.7,17.6c0,7.9-3,14.4-9.1,19.6c-6.1,5.2-14.7,7.8-25.8,7.8
		c-11.4,0-20.3-2.6-26.8-7.7c-6.5-5.1-9.8-12.2-9.8-21.2H412.2z"/>
	<path class="st0" d="M495.6,145.7h-17.9V59.4h17.9V145.7z"/>
	<path class="st0" d="M537.2,59.4h20.4l30.5,86.3h-19.5l-5.7-17.7h-31.8l-5.8,17.7h-18.9L537.2,59.4z M536,113.1h22.1l-10.9-33.9
		L536,113.1z"/>
	<path class="st0" d="M598.8,59.4h18.9l34.2,60.2V59.4h16.8v86.3h-18l-35.1-61.2v61.2h-16.8V59.4z"/>
	<path class="st0" d="M710.3,59.4h20.4l30.5,86.3h-19.5l-5.7-17.7h-31.8l-5.8,17.7h-18.9L710.3,59.4z M709.1,113.1h22.1l-10.9-33.9
		L709.1,113.1z"/>
	<rect x="218.9" y="182.1" class="st0" width="542.7" height="15.2"/>
</g>
<rect x="1276.1" y="-131" class="st1" width="1143" height="914"/>
<g>
	<polygon class="st2" points="1493.5,89.4 1493.5,57.7 1537.8,57.7 1537.8,209.3 1493.5,209.3 1493.5,127.2 1411.4,127.2 
		1411.4,209.3 1367.2,209.3 1367.2,7.1 1411.4,7.1 1411.4,89.4 	"/>
	<path class="st2" d="M1573.9,146.7V60.4h17.9v32.9h33.5V60.4h17.9v86.3h-17.9v-38.5h-33.5v38.5H1573.9z"/>
	<path class="st2" d="M1727,139c-6.5,6.7-15.9,10.1-28.3,10.1c-12.3,0-21.8-3.4-28.3-10.1c-8.7-8.2-13.1-20.1-13.1-35.6
		c0-15.8,4.4-27.7,13.1-35.6c6.5-6.7,15.9-10.1,28.3-10.1c12.3,0,21.8,3.4,28.3,10.1c8.7,7.9,13.1,19.8,13.1,35.6
		C1740.1,118.9,1735.7,130.8,1727,139z M1715.7,125.9c4.2-5.3,6.3-12.8,6.3-22.5c0-9.7-2.1-17.2-6.3-22.4c-4.2-5.3-9.9-7.9-17-7.9
		c-7.1,0-12.8,2.6-17.1,7.9c-4.3,5.3-6.4,12.8-6.4,22.5s2.1,17.2,6.4,22.5c4.3,5.3,10,7.9,17.1,7.9
		C1705.9,133.8,1711.5,131.1,1715.7,125.9z"/>
	<path class="st2" d="M1766.8,120c0.6,3.9,1.7,6.9,3.3,8.8c3,3.6,8.1,5.3,15.4,5.3c4.3,0,7.9-0.5,10.6-1.4c5.1-1.8,7.7-5.1,7.7-10
		c0-2.8-1.3-5.1-3.8-6.6c-2.5-1.5-6.5-2.9-12-4l-9.3-2c-9.2-2-15.5-4.2-18.9-6.6c-5.8-4-8.7-10.2-8.7-18.7c0-7.7,2.8-14.1,8.5-19.3
		c5.7-5.1,14-7.7,25.1-7.7c9.2,0,17.1,2.4,23.6,7.2c6.5,4.8,9.9,11.8,10.2,21h-17.3c-0.3-5.2-2.6-8.9-7-11.1
		c-2.9-1.4-6.5-2.2-10.7-2.2c-4.8,0-8.6,0.9-11.4,2.8c-2.8,1.9-4.3,4.5-4.3,7.8c0,3.1,1.4,5.4,4.2,6.9c1.8,1,5.6,2.2,11.5,3.6
		l15.1,3.6c6.6,1.6,11.6,3.6,14.9,6.3c5.1,4.1,7.7,9.9,7.7,17.6c0,7.9-3,14.4-9.1,19.6c-6.1,5.2-14.7,7.8-25.8,7.8
		c-11.4,0-20.3-2.6-26.8-7.7c-6.5-5.1-9.8-12.2-9.8-21.2H1766.8z"/>
	<path class="st2" d="M1850.2,146.7h-17.9V60.4h17.9V146.7z"/>
	<path class="st2" d="M1891.8,60.4h20.4l30.5,86.3h-19.6l-5.7-17.7h-31.8l-5.8,17.7H1861L1891.8,60.4z M1890.6,114.1h22.1
		l-10.9-33.9L1890.6,114.1z"/>
	<path class="st2" d="M1953.4,60.4h18.9l34.2,60.2V60.4h16.8v86.3h-18l-35.1-61.2v61.2h-16.8V60.4z"/>
	<path class="st2" d="M2064.9,60.4h20.4l30.5,86.3h-19.5l-5.7-17.7h-31.8l-5.8,17.7h-18.9L2064.9,60.4z M2063.7,114.1h22.1
		l-10.9-33.9L2063.7,114.1z"/>
	<rect x="1573.5" y="183.1" class="st2" width="542.7" height="15.2"/>
</g>
<g>
	<polygon class="st0" points="138.9,920.2 138.9,888.5 183.2,888.5 183.2,1040.1 138.9,1040.1 138.9,957.9 56.8,957.9 56.8,1040.1 
		12.7,1040.1 12.7,837.9 56.8,837.9 56.8,920.2 	"/>
	<rect x="218.9" y="1013.9" class="st0" width="254.8" height="15.2"/>
	<g>
		<path class="st0" d="M278.8,941c-5.3,4.4-12.8,6.6-22.5,6.6h-18.7v32.3h-18.6V890h38.6c8.9,0,16,2.3,21.3,6.9s7.9,11.8,7.9,21.5
			C286.7,929.1,284,936.6,278.8,941z M264.4,908.6c-2.4-2-5.7-3-10-3h-16.9v26.4h16.9c4.3,0,7.6-1.1,10-3.2s3.6-5.6,3.6-10.2
			C268,913.9,266.8,910.6,264.4,908.6z"/>
		<path class="st0" d="M359.2,892.4c3.3,1.4,6.1,3.5,8.4,6.3c1.9,2.3,3.4,4.8,4.5,7.6c1.1,2.8,1.7,5.9,1.7,9.4
			c0,4.3-1.1,8.5-3.2,12.6c-2.2,4.1-5.7,7-10.7,8.7c4.1,1.7,7.1,4,8.8,7.1c1.7,3.1,2.6,7.7,2.6,14v6c0,4.1,0.2,6.9,0.5,8.3
			c0.5,2.3,1.6,4,3.5,5.1v2.3h-20.7c-0.6-2-1-3.6-1.2-4.8c-0.5-2.5-0.8-5.1-0.8-7.7l-0.1-8.3c-0.1-5.7-1.1-9.5-3-11.5
			c-1.9-1.9-5.5-2.9-10.7-2.9h-18.3v35.2h-18.3V890h43C351.2,890.2,355.9,890.9,359.2,892.4z M320.5,905.6v24.1h20.2
			c4,0,7-0.5,9-1.5c3.5-1.7,5.3-5.1,5.3-10.1c0-5.4-1.7-9.1-5.1-11c-1.9-1.1-4.8-1.6-8.7-1.6H320.5z"/>
		<path class="st0" d="M460.9,971.9c-6.8,7-16.6,10.5-29.4,10.5s-22.6-3.5-29.4-10.5c-9.1-8.6-13.6-20.9-13.6-37
			c0-16.4,4.5-28.8,13.6-37c6.8-7,16.6-10.5,29.4-10.5s22.6,3.5,29.4,10.5c9.1,8.2,13.6,20.6,13.6,37
			C474.5,950.9,470,963.3,460.9,971.9z M449.2,958.2c4.4-5.5,6.5-13.3,6.5-23.4c0-10.1-2.2-17.9-6.5-23.4
			c-4.4-5.5-10.3-8.3-17.7-8.3s-13.4,2.7-17.8,8.2c-4.4,5.5-6.6,13.3-6.6,23.4s2.2,17.9,6.6,23.4c4.4,5.5,10.4,8.2,17.8,8.2
			S444.9,963.7,449.2,958.2z"/>
	</g>
</g>
<polygon class="st3" points="681.9,920.2 681.9,888.5 726.2,888.5 726.2,1040.1 681.9,1040.1 681.9,957.9 599.8,957.9 599.8,1040.1 
	555.7,1040.1 555.7,837.9 599.8,837.9 599.8,920.2 "/>
<rect x="761.9" y="1013.9" class="st3" width="266.3" height="15.2"/>
<path class="st3" d="M821,890h27v89.8h-17.5v-60.7c0-1.7,0-4.2,0.1-7.3c0-3.1,0.1-5.6,0.1-7.3l-17,75.4h-18.2l-16.9-75.4
	c0,1.7,0,4.1,0.1,7.3c0,3.1,0.1,5.6,0.1,7.3v60.7h-17.5V890h27.3l16.3,70.6L821,890z"/>
<path class="st3" d="M887.1,890h21.2l31.8,89.8h-20.3l-5.9-18.5h-33.1l-6.1,18.5H855L887.1,890z M885.9,945.9h23l-11.3-35.3
	L885.9,945.9z"/>
<path class="st3" d="M969.9,979.8h-21.8l28.9-45.8l-27.5-44h22.4l16,29.2l16.5-29.2h21.7l-27.5,43.3l29.2,46.5H1005l-17.1-30.6
	L969.9,979.8z"/>
<g>
	<polygon class="st2" points="1493.5,488.2 1493.5,456.4 1537.8,456.4 1537.8,608 1493.5,608 1493.5,525.9 1411.4,525.9 1411.4,608 
		1367.2,608 1367.2,405.9 1411.4,405.9 1411.4,488.2 	"/>
	<rect x="1573.5" y="581.8" class="st2" width="254.8" height="15.2"/>
	<g>
		<path class="st2" d="M1633.4,508.9c-5.3,4.4-12.8,6.6-22.5,6.6h-18.7v32.3h-18.6V458h38.6c8.9,0,16,2.3,21.3,6.9
			s7.9,11.8,7.9,21.5C1641.2,497.1,1638.6,504.5,1633.4,508.9z M1619,476.6c-2.4-2-5.7-3-10-3h-16.9V500h16.9c4.3,0,7.6-1.1,10-3.2
			s3.6-5.6,3.6-10.2C1622.6,481.9,1621.4,478.6,1619,476.6z"/>
		<path class="st2" d="M1713.8,460.3c3.3,1.4,6.1,3.5,8.4,6.3c1.9,2.3,3.4,4.8,4.5,7.6c1.1,2.8,1.7,5.9,1.7,9.4
			c0,4.3-1.1,8.5-3.2,12.6c-2.2,4.1-5.7,7-10.7,8.7c4.1,1.7,7.1,4,8.8,7.1c1.7,3.1,2.6,7.7,2.6,14v6c0,4.1,0.2,6.9,0.5,8.3
			c0.5,2.3,1.6,4,3.5,5.1v2.3h-20.7c-0.6-2-1-3.6-1.2-4.8c-0.5-2.5-0.8-5.1-0.8-7.7l-0.1-8.3c-0.1-5.7-1.1-9.5-3-11.5
			c-1.9-1.9-5.5-2.9-10.7-2.9h-18.3v35.2h-18.3V458h43C1705.8,458.1,1710.5,458.9,1713.8,460.3z M1675.1,473.6v24.1h20.2
			c4,0,7-0.5,9-1.5c3.5-1.7,5.3-5.1,5.3-10.1c0-5.4-1.7-9.1-5.1-11c-1.9-1.1-4.8-1.6-8.7-1.6H1675.1z"/>
		<path class="st2" d="M1815.5,539.8c-6.8,7-16.6,10.5-29.4,10.5s-22.6-3.5-29.4-10.5c-9.1-8.6-13.6-20.9-13.6-37
			c0-16.4,4.5-28.8,13.6-37c6.8-7,16.6-10.5,29.4-10.5s22.6,3.5,29.4,10.5c9.1,8.2,13.6,20.6,13.6,37
			C1829.1,518.9,1824.6,531.2,1815.5,539.8z M1803.8,526.2c4.4-5.5,6.5-13.3,6.5-23.4c0-10.1-2.2-17.9-6.5-23.4
			c-4.4-5.5-10.3-8.3-17.7-8.3s-13.4,2.7-17.8,8.2c-4.4,5.5-6.6,13.3-6.6,23.4c0,10.1,2.2,17.9,6.6,23.4c4.4,5.5,10.4,8.2,17.8,8.2
			S1799.5,531.7,1803.8,526.2z"/>
	</g>
</g>
<g>
	<polygon class="st2" points="2036.5,488.2 2036.5,456.4 2080.8,456.4 2080.8,608 2036.5,608 2036.5,525.9 1954.4,525.9 1954.4,608 
		1910.2,608 1910.2,405.9 1954.4,405.9 1954.4,488.2 	"/>
	<rect x="2116.5" y="581.8" class="st2" width="266.3" height="15.2"/>
	<path class="st2" d="M2175.6,458h27v89.8h-17.5v-60.7c0-1.7,0-4.2,0.1-7.3c0-3.1,0.1-5.6,0.1-7.3l-17,75.4H2150l-16.9-75.4
		c0,1.7,0,4.1,0.1,7.3c0,3.1,0.1,5.6,0.1,7.3v60.7h-17.5V458h27.3l16.3,70.6L2175.6,458z"/>
	<path class="st2" d="M2241.7,458h21.2l31.8,89.8h-20.3l-5.9-18.5h-33.1l-6.1,18.5h-19.6L2241.7,458z M2240.5,513.9h23l-11.3-35.3
		L2240.5,513.9z"/>
	<path class="st2" d="M2324.5,547.8h-21.8l28.9-45.8l-27.5-44h22.4l16,29.2l16.5-29.2h21.7l-27.5,43.3l29.2,46.5h-22.8l-17.1-30.6
		L2324.5,547.8z"/>
</g>
</svg>
