<svg xmlns="http://www.w3.org/2000/svg" width="30" height="30" viewBox="0 0 30 30">
    <path fill="#555" fill-rule="nonzero" d="M11.194 21.392c2.413 0 4.696-.837 6.526-2.366l.942.942-.313.314a.874.874 0 0 0 0 1.237l7.225 7.225a.873.873 0 0 0 1.238 0l1.932-1.933a.874.874 0 0 0 0-1.237l-7.225-7.225a.874.874 0 0 0-1.238 0l-.381.382-.94-.94a10.112 10.112 0 0 0 2.43-6.595 10.13 10.13 0 0 0-2.986-7.21A10.129 10.129 0 0 0 11.194 1C8.473 1 5.913 2.06 3.987 3.987A10.128 10.128 0 0 0 1 11.197c0 2.723 1.06 5.283 2.986 7.208a10.118 10.118 0 0 0 7.208 2.987zm15.693 4.802l-.695.694-5.988-5.988.695-.694 5.988 5.988zM5.223 5.224a8.388 8.388 0 0 1 5.971-2.473 8.39 8.39 0 0 1 5.972 2.474 8.392 8.392 0 0 1 2.474 5.972 8.39 8.39 0 0 1-2.474 5.972 8.39 8.39 0 0 1-5.972 2.474 8.388 8.388 0 0 1-5.971-2.474 8.391 8.391 0 0 1-2.474-5.972c0-2.257.878-4.377 2.474-5.972z"/>
</svg>
