<svg xmlns="http://www.w3.org/2000/svg" width="30" height="30" viewBox="0 0 30 30">
    <g fill="none" fill-rule="nonzero">
        <path fill="#E4375C" d="M11.729 10.54v-.66H3.218v1.48H1v6.136h2.218v1.478h8.51V10.54zM10.6 20.638H5.433l1.301 5.976h5.168z"/>
        <path fill="#86EFD8" d="M15.33 9.385c-.71.27-1.362.494-1.938.676v8.733c.576.182 1.228.406 1.938.676 2.42.924 6.017 2.598 9.54 5.36V4.025c-3.523 2.761-7.12 4.435-9.54 5.359zM26.974 10.546h-.44v7.763h.44A2.028 2.028 0 0 0 29 16.283v-3.71a2.028 2.028 0 0 0-2.026-2.027z"/>
    </g>
</svg>
