<svg xmlns="http://www.w3.org/2000/svg" xmlns:xlink="http://www.w3.org/1999/xlink" width="30" height="30" viewBox="0 0 30 30">
    <defs>
        <path id="a" d="M0 0h28v23H0z"/>
    </defs>
    <g fill="none" fill-rule="evenodd" transform="translate(1 4)">
        <mask id="b" fill="#fff">
            <use xlink:href="#a"/>
        </mask>
        <path fill="#E4375C" d="M24.207 6.098V.63a.64.64 0 0 0-.301-.517.746.746 0 0 0-.573-.09l-11.952 4.8H5.48a3.068 3.068 0 0 0-2.65 1.64l-.542.213A3.432 3.432 0 0 0 0 9.927a3.37 3.37 0 0 0 2.288 3.22l.362.152a3.117 3.117 0 0 0 1.505 1.671l1.596 5.834a2.948 2.948 0 0 0 3.622 2.09 2.95 2.95 0 0 0 1.586-1.087 3.152 3.152 0 0 0 .482-2.644l-1.084-4.01h1.024l11.952 4.891.211.061c.127.002.251-.03.362-.091a.578.578 0 0 0 .3-.486v-5.773c2.096 0 3.794-1.714 3.794-3.829 0-2.114-1.698-3.828-3.793-3.828zM2.529 11.932a2.037 2.037 0 0 1-1.264-2.005A2.037 2.037 0 0 1 2.529 7.92v4.01zm7.467 9.115a1.71 1.71 0 0 1-1.415.699 1.81 1.81 0 0 1-1.686-1.337L5.48 15.152h3.643l1.144 4.315c.156.54.056 1.124-.271 1.58zm.963-7.11H5.48a1.661 1.661 0 0 1-1.743-1.577c-.003-.042-.003-.083-.003-.125V7.921a1.816 1.816 0 0 1 1.745-1.884h5.482v7.9zm12.043 4.68L12.164 14.24V5.916L23.002 1.54v17.076zm1.205-6.077V7.314c1.43 0 2.589 1.17 2.589 2.613s-1.16 2.612-2.59 2.613z" mask="url(#b)"/>
    </g>
</svg>
