<svg xmlns="http://www.w3.org/2000/svg" width="30" height="30" viewBox="0 0 30 30">
    <g fill="#000" fill-rule="nonzero">
        <path d="M27.559 11.889h-2.62a.978.978 0 0 1-.93-.62.978.978 0 0 1 .219-1.097L26.08 8.32c.272-.272.422-.634.422-1.019 0-.385-.15-.747-.422-1.02l-2.361-2.36c-.545-.545-1.494-.546-2.04 0l-1.851 1.85a.978.978 0 0 1-1.096.22.978.978 0 0 1-.62-.93v-2.62c0-.794-.647-1.441-1.442-1.441h-3.34c-.795 0-1.441.647-1.441 1.441v2.62a.978.978 0 0 1-.62.93.977.977 0 0 1-1.097-.22L8.32 3.922c-.545-.546-1.494-.545-2.039 0l-2.36 2.36a1.433 1.433 0 0 0-.423 1.02c0 .385.15.747.422 1.02l1.852 1.851a.98.98 0 0 1 .218 1.096.977.977 0 0 1-.929.62h-2.62c-.794 0-1.441.647-1.441 1.442v3.34c0 .795.647 1.441 1.441 1.441h2.62c.421 0 .768.232.93.62a.978.978 0 0 1-.219 1.097L3.92 21.68a1.433 1.433 0 0 0-.422 1.019c0 .385.15.747.422 1.02l2.361 2.36c.545.546 1.494.547 2.04 0l1.851-1.851a.978.978 0 0 1 1.096-.218c.39.161.62.508.62.929v2.62c0 .794.647 1.441 1.442 1.441h3.34c.794 0 1.44-.647 1.44-1.441v-2.62c0-.421.232-.768.621-.93a.977.977 0 0 1 1.096.219l1.852 1.852c.546.545 1.495.544 2.04 0l2.36-2.361c.272-.272.422-.635.422-1.02s-.15-.747-.422-1.02l-1.852-1.851a.98.98 0 0 1-.218-1.096.978.978 0 0 1 .93-.62h2.62c.794 0 1.441-.647 1.441-1.442v-3.34c0-.795-.647-1.441-1.441-1.441zm.404 4.78a.405.405 0 0 1-.404.405h-2.62c-.842 0-1.565.483-1.887 1.261a2.01 2.01 0 0 0 .442 2.227l1.853 1.851a.405.405 0 0 1 0 .573l-2.361 2.36a.405.405 0 0 1-.573 0l-1.851-1.852a2.012 2.012 0 0 0-2.227-.442 2.011 2.011 0 0 0-1.26 1.887v2.62a.405.405 0 0 1-.405.404h-3.34a.405.405 0 0 1-.404-.404v-2.62c0-.842-.483-1.565-1.261-1.887a2.014 2.014 0 0 0-2.227.442l-1.851 1.852a.405.405 0 0 1-.573 0l-2.36-2.36a.405.405 0 0 1 0-.573l1.852-1.852a2.011 2.011 0 0 0 .442-2.226 2.011 2.011 0 0 0-1.887-1.26h-2.62a.405.405 0 0 1-.404-.405v-3.34c0-.223.182-.404.404-.404h2.62c.842 0 1.565-.483 1.887-1.261a2.01 2.01 0 0 0-.442-2.227L4.653 7.587a.405.405 0 0 1 0-.573l2.361-2.36a.405.405 0 0 1 .573 0l1.851 1.851a2.012 2.012 0 0 0 2.227.443 2.01 2.01 0 0 0 1.26-1.887v-2.62c0-.222.182-.404.405-.404h3.34c.223 0 .404.182.404.404v2.62c0 .842.483 1.565 1.261 1.887a2.01 2.01 0 0 0 2.227-.442l1.851-1.852a.405.405 0 0 1 .573 0l2.36 2.36a.405.405 0 0 1 0 .573L23.495 9.44a2.011 2.011 0 0 0-.442 2.226 2.011 2.011 0 0 0 1.887 1.261h2.62c.222 0 .404.181.404.404v3.34z"/>
        <path d="M15 10.333A4.672 4.672 0 0 0 10.333 15 4.672 4.672 0 0 0 15 19.667 4.672 4.672 0 0 0 19.667 15 4.672 4.672 0 0 0 15 10.333zm0 8.297A3.634 3.634 0 0 1 11.37 15 3.634 3.634 0 0 1 15 11.37 3.634 3.634 0 0 1 18.63 15 3.634 3.634 0 0 1 15 18.63z"/>
    </g>
</svg>
