<svg xmlns="http://www.w3.org/2000/svg" width="30" height="30" viewBox="0 0 30 30">
    <path fill="#555" fill-rule="nonzero" d="M8.075 18.475l-2.039 8.456a.863.863 0 0 0 .333.9.883.883 0 0 0 .966.047L15 23.368l7.663 4.51a.88.88 0 0 0 .966-.046.863.863 0 0 0 .332-.9l-2.039-8.456 6.767-5.68a.86.86 0 0 0 .268-.926.873.873 0 0 0-.761-.598l-8.926-.73-3.467-8.017A.874.874 0 0 0 15 2a.874.874 0 0 0-.804.525l-3.47 8.017-8.923.729a.873.873 0 0 0-.761.599.86.86 0 0 0 .268.925l6.765 5.68zm3.32-6.25a.873.873 0 0 0 .732-.522L15 5.065l2.87 6.637c.128.296.41.497.732.523l7.344.6-5.565 4.672a.86.86 0 0 0-.285.862l1.683 6.981-6.331-3.726a.877.877 0 0 0-.893 0L8.22 25.341l1.683-6.982a.86.86 0 0 0-.285-.862l-5.564-4.672 7.34-.6z"/>
</svg>
