<svg xmlns="http://www.w3.org/2000/svg" width="68" height="68" viewBox="0 0 68 68">
    <g fill="none" fill-rule="evenodd">
        <circle cx="34" cy="34" r="34" fill="#3ACAAA"/>
        <path fill="#FFF" d="M52.993 24.198l-3.277-3.205a2.254 2.254 0 0 0-1.637-.66c-.642 0-1.19.22-1.638.66L30.64 36.479l-7.08-6.954a2.26 2.26 0 0 0-1.639-.66c-.642 0-1.188.22-1.638.66l-3.276 3.205c-.449.44-.674.975-.674 1.604 0 .628.225 1.163.674 1.603l11.996 11.737c.449.44.995.66 1.637.66s1.188-.22 1.638-.66l20.715-20.27c.449-.44.674-.974.674-1.603 0-.628-.225-1.162-.674-1.603z"/>
    </g>
</svg>
