<svg xmlns="http://www.w3.org/2000/svg" xmlns:xlink="http://www.w3.org/1999/xlink" width="30" height="30" viewBox="0 0 30 30">
    <defs>
        <path id="a" d="M0 0h28v28H0z"/>
    </defs>
    <g fill="none" fill-rule="evenodd" transform="matrix(-1 0 0 1 29 1)">
        <mask id="b" fill="#fff">
            <use xlink:href="#a"/>
        </mask>
        <path fill="#555" d="M6 3a3 3 0 1 0 3 3c.005-1.66-1.34-3-3-3zm0 4.937A1.94 1.94 0 0 1 4.063 6 1.94 1.94 0 0 1 6 4.063a1.936 1.936 0 1 1 0 3.874z" mask="url(#b)"/>
        <path fill="#555" d="M13.343 1.074A3.1 3.1 0 0 0 11.017.063L4.886 0c-1.309 0-2.56.474-3.457 1.429C.474 2.326 0 3.577 0 4.886l.057 6.137c.057.834.36 1.668 1.012 2.325L15.726 28 28 15.726 13.343 1.074zm2.325 25.257L1.847 12.51a2.166 2.166 0 0 1-.657-1.549L1.13 4.886c0-.955.418-1.909 1.075-2.623a3.791 3.791 0 0 1 2.68-1.132l6.074.058c.594 0 1.131.24 1.549.657L26.33 15.668 15.67 26.331z" mask="url(#b)"/>
    </g>
</svg>
